<svg width="25" height="30" viewBox="0 0 25 30" fill="none" xmlns="http://www.w3.org/2000/svg">
<path d="M15.4863 27.0908C16.7667 25.4497 17.539 22.9855 17.539 20.374C17.539 19.81 17.4882 19.2969 17.4374 18.7837H6.71685C6.66604 19.2969 6.61523 19.8608 6.61523 20.374C6.61523 22.9906 7.33163 25.4497 8.66789 27.0908H15.4863Z" fill="#434343"/>
<path d="M3.68861 20.3178C3.68861 19.8876 3.72552 19.4204 3.79888 18.9816H5.82227C5.78154 19.4185 5.74634 19.8845 5.74634 20.3178C5.74634 22.7352 6.3734 25.0318 7.43152 26.7806H6.75578C4.80598 25.1881 3.68861 22.8279 3.68861 20.3178Z" fill="#434343" stroke="#262626" stroke-width="0.508082"/>
<path d="M23.7128 14.7795L23.7792 14.9324H23.7814C23.6842 15.5047 23.1828 15.913 22.6146 15.913C21.9382 15.913 21.4308 15.3625 21.4308 14.7291C21.4308 14.5697 21.3556 14.4306 21.2605 14.3355C21.1654 14.2404 21.0263 14.1652 20.8668 14.1652C20.7048 14.1652 20.5656 14.2439 20.4722 14.3384C20.3791 14.4325 20.3028 14.571 20.3028 14.7291C20.3028 15.4055 19.7524 15.913 19.119 15.913C18.4426 15.913 17.9352 15.3625 17.9352 14.7291C17.9352 14.5697 17.86 14.4306 17.7649 14.3355C17.6698 14.2404 17.5307 14.1652 17.3712 14.1652C17.2092 14.1652 17.07 14.2439 16.9766 14.3384C16.8835 14.4325 16.8072 14.571 16.8072 14.7291C16.8072 15.4055 16.2568 15.913 15.6234 15.913C14.947 15.913 14.4396 15.3625 14.4396 14.7291C14.4396 14.5697 14.3644 14.4306 14.2693 14.3355C14.1742 14.2404 14.0351 14.1652 13.8756 14.1652C13.7136 14.1652 13.5744 14.2439 13.481 14.3384C13.3879 14.4325 13.3116 14.571 13.3116 14.7291C13.3116 15.4055 12.7612 15.913 12.1278 15.913C11.4514 15.913 10.944 15.3625 10.944 14.7291C10.944 14.5697 10.8688 14.4306 10.7737 14.3355C10.6786 14.2404 10.5395 14.1652 10.38 14.1652C10.218 14.1652 10.0788 14.2439 9.98536 14.3384C9.89229 14.4325 9.81604 14.571 9.81604 14.7291C9.81604 15.4055 9.26558 15.913 8.63221 15.913C7.9558 15.913 7.44838 15.3625 7.44838 14.7291C7.44838 14.5697 7.37315 14.4306 7.27807 14.3355C7.18299 14.2404 7.04388 14.1652 6.8844 14.1652C6.72236 14.1652 6.58321 14.2439 6.48976 14.3384C6.39669 14.4325 6.32043 14.571 6.32043 14.7291C6.32043 15.4055 5.76998 15.913 5.1366 15.913C4.4602 15.913 3.95277 15.3625 3.95277 14.7291C3.95277 14.5697 3.87755 14.4306 3.78246 14.3355C3.68738 14.2404 3.54828 14.1652 3.3888 14.1652C3.22676 14.1652 3.0876 14.2439 2.99416 14.3384C2.90109 14.4325 2.82483 14.571 2.82483 14.7291C2.82483 15.4055 2.27437 15.913 1.641 15.913C0.965453 15.913 0.458451 15.3639 0.457168 14.7315L6.73035 0.416468H8.66148L6.3183 11.8951C6.26325 12.0749 6.33155 12.2353 6.41503 12.3394C6.49946 12.4447 6.61865 12.5216 6.73587 12.5611C6.92275 12.6263 7.09021 12.5563 7.19767 12.4701C7.30359 12.3852 7.38079 12.265 7.42009 12.1471L7.42486 12.1328L7.4279 12.1181L9.85029 0.37074H14.3595L16.7726 12.0973C16.7826 12.2545 16.8689 12.3765 16.9697 12.4531C17.0744 12.5328 17.2065 12.5749 17.3356 12.5749H17.3865C17.5851 12.5749 17.7385 12.4693 17.8242 12.3323C17.9025 12.207 17.9307 12.046 17.8869 11.8969L15.5433 0.416468H17.4739L23.7128 14.7795ZM13.0145 10.1004L13.017 10.0827V10.0649C13.017 9.56898 12.5933 9.14532 12.0973 9.14532C11.6014 9.14532 11.1777 9.56898 11.1777 10.0649C11.1777 10.5597 11.595 10.9846 12.0973 10.9846C12.6195 10.9846 12.9522 10.5425 13.0145 10.1004ZM11.4825 3.65295V8.16472C11.4825 8.3242 11.5578 8.4633 11.6529 8.55838C11.7479 8.65346 11.887 8.72869 12.0465 8.72869C12.2086 8.72869 12.3477 8.64996 12.4412 8.55549C12.5342 8.4614 12.6105 8.32288 12.6105 8.16472V3.65295C12.6105 3.49347 12.5353 3.35437 12.4402 3.25929C12.3451 3.1642 12.206 3.08898 12.0465 3.08898C11.8845 3.08898 11.7453 3.1677 11.6519 3.26218C11.5588 3.35627 11.4825 3.49479 11.4825 3.65295ZM11.1777 1.7578C11.1777 2.25251 11.595 2.67743 12.0973 2.67743C12.5933 2.67743 13.017 2.25376 13.017 1.7578C13.017 1.26184 12.5933 0.838176 12.0973 0.838176C11.6014 0.838176 11.1777 1.26184 11.1777 1.7578Z" fill="white" stroke="black" stroke-width="0.508082"/>
<path d="M19.4345 27.7056H4.71539C4.35465 27.7056 4.0498 28.0155 4.0498 28.3712C4.0498 28.7268 4.35974 29.0367 4.71539 29.0367H19.4853C19.8461 29.0367 20.1509 28.7268 20.1509 28.3712C20.1001 28.0104 19.7902 27.7056 19.4345 27.7056Z" fill="#262626"/>
<path d="M18.4588 20.3178C18.4588 19.8845 18.4236 19.4185 18.3828 18.9816H20.4066C20.4798 19.4107 20.5165 19.8452 20.5165 20.3178C20.5165 22.823 19.3991 25.1881 17.4493 26.7806H16.7831C17.8778 25.0286 18.4588 22.7347 18.4588 20.3178Z" fill="#434343" stroke="#262626" stroke-width="0.508082"/>
</svg>
