<svg width="28" height="46" viewBox="0 0 28 46" fill="none" xmlns="http://www.w3.org/2000/svg">
<g clip-path="url(#clip0_537_3960)">
<path d="M24.6641 0.351562H2.43042C1.28176 0.351562 0.350586 1.28273 0.350586 2.43139V42.8328C0.350586 43.9815 1.28176 44.9127 2.43042 44.9127H24.6641C25.8128 44.9127 26.7439 43.9815 26.7439 42.8328V2.43139C26.7439 1.28273 25.8128 0.351562 24.6641 0.351562Z" fill="white"/>
<path d="M24.6709 45.27H2.43721C1.09557 45.27 0 44.1803 0 42.8328V2.43721C0 1.08971 1.08971 0 2.43721 0H24.6709C26.0125 0 27.1081 1.08971 27.1081 2.43721V42.8328C27.1081 44.1744 26.0184 45.27 24.6709 45.27ZM2.43721 0.7089C1.48225 0.7089 0.7089 1.48225 0.7089 2.43721V42.8328C0.7089 43.7878 1.48225 44.5611 2.43721 44.5611H24.6709C25.6259 44.5611 26.3992 43.7878 26.3992 42.8328V2.43721C26.3992 1.48225 25.6259 0.7089 24.6709 0.7089H2.43721Z" fill="#414042"/>
<path d="M26.7439 16.8438H0.350586V18.2733H26.7439V16.8438Z" fill="white"/>
<path d="M27.1022 18.6306H0V16.4922H27.1022V18.6306ZM0.7089 17.9217H26.3933V17.2011H0.7089V17.9217Z" fill="#414042"/>
<path d="M23.4705 23.4054C23.4705 21.3256 22.6444 20.5288 22.6444 20.5288H22.5917C22.5917 20.5288 21.7656 21.3256 21.7656 23.4054C21.7656 25.0751 22.5858 30.6116 22.621 30.43C22.6503 30.6116 22.6679 30.7112 22.6679 30.7112C22.6679 30.7112 23.4705 25.0751 23.4705 23.4054Z" fill="white"/>
<path d="M22.662 31.0685C22.4921 31.0685 22.3397 30.9455 22.3104 30.7756C22.3104 30.7756 22.2929 30.6877 22.2694 30.5295C22.2401 30.4534 22.2284 30.3596 22.2108 30.2659C22.1815 30.1136 22.1464 29.8909 22.1054 29.6273C22.0175 29.0473 21.9062 28.3032 21.8125 27.5885C21.6601 26.4402 21.4023 24.3721 21.4023 23.4112C21.4023 21.2025 22.2987 20.312 22.3397 20.2768C22.4042 20.2124 22.4921 20.1772 22.5858 20.1772H22.6385C22.7323 20.1772 22.8201 20.2124 22.8846 20.2768C22.9256 20.312 23.822 21.2025 23.822 23.4112C23.822 25.0868 23.0486 30.5412 23.0135 30.7697C22.99 30.9396 22.8436 31.0685 22.6678 31.0744L22.662 31.0685ZM22.6151 21.1029C22.5741 21.1791 22.5272 21.2728 22.4803 21.3783C22.3163 21.7591 22.1171 22.427 22.1171 23.4112C22.1171 24.3955 22.3983 26.6335 22.6327 28.3032C22.8553 26.5632 23.1189 24.3369 23.1189 23.4112C23.1189 22.2161 22.8319 21.4837 22.6209 21.1088L22.6151 21.1029Z" fill="#414042"/>
<path d="M23.4695 7.8445C23.4695 6.45013 22.6435 5.91113 22.6435 5.91113H22.5907C22.5907 5.91113 21.7646 6.44427 21.7646 7.8445C21.7646 8.9635 22.5849 12.6779 22.62 12.5549C22.6493 12.6779 22.6669 12.7424 22.6669 12.7424C22.6669 12.7424 23.4695 8.95764 23.4695 7.83864V7.8445Z" fill="white"/>
<path d="M22.661 13.106C22.4969 13.106 22.3563 12.9947 22.3153 12.8424C22.3153 12.8424 22.3036 12.7897 22.2802 12.6959C22.2509 12.6315 22.2333 12.5612 22.2157 12.4967C22.1864 12.3913 22.1513 12.239 22.1103 12.0573C22.0224 11.6648 21.9111 11.1668 21.8173 10.6864C21.665 9.9072 21.4072 8.50697 21.4072 7.8508C21.4072 6.28068 22.3563 5.64794 22.3973 5.6245C22.4559 5.58935 22.5204 5.56592 22.5907 5.56592H22.6434C22.7137 5.56592 22.7782 5.58349 22.8367 5.6245C22.8778 5.64794 23.8269 6.28068 23.8269 7.8508C23.8269 8.99324 23.0477 12.6725 23.0125 12.8248C22.9774 12.983 22.8367 13.1002 22.6727 13.106C22.6727 13.106 22.6727 13.106 22.6668 13.106H22.661ZM22.6141 6.36856C22.4149 6.58533 22.1161 7.04816 22.1161 7.8508C22.1161 8.47182 22.3973 9.99508 22.6317 11.1141C22.8543 9.94821 23.118 8.46596 23.118 7.8508C23.118 7.05402 22.8192 6.59119 22.62 6.36856H22.6141Z" fill="#414042"/>
<path d="M12.1034 11.1423L8.14551 11L8.00031 15.0399L11.9582 15.1821L12.1034 11.1423Z" fill="#434343"/>
<path d="M17.1034 4.14225L13.1455 4L13.0003 8.03988L16.9582 8.18213L17.1034 4.14225Z" fill="#434343"/>
<path d="M5.39038 11.0906L3.32227 6.81372L7.52294 4.78076L9.59105 9.0576L5.39038 11.0906ZM4.26551 7.14767L5.71846 10.1473L8.6478 8.72951L7.19485 5.72987L4.26551 7.14767Z" fill="#414042"/>
</g>
<defs>
<clipPath id="clip0_537_3960">
<rect width="27.1022" height="45.27" fill="white"/>
</clipPath>
</defs>
</svg>
