<svg width="39" height="36" viewBox="0 0 39 36" fill="none" xmlns="http://www.w3.org/2000/svg">
<g clip-path="url(#clip0_537_4046)">
<path d="M36.0158 0.45752H3.4873V26.4383H36.0158V0.45752Z" fill="white"/>
<path d="M36.3309 26.7592H3.16602V0.14209H36.3309V26.7592ZM3.80239 26.1228H35.6945V0.77846H3.80239V26.1228Z" fill="#414042"/>
<path d="M26.8494 0.45752H12.6494V28.1738H26.8494V0.45752Z" fill="white"/>
<path d="M27.1698 28.4948H12.3281V0.14209H27.1645V28.4948H27.1698ZM12.9698 27.8584H26.5334V0.77846H12.9645V27.8584H12.9698Z" fill="#414042"/>
<path d="M36.0094 0.45752H28.1152V28.1738H36.0094V0.45752Z" fill="white"/>
<path d="M36.3303 28.4948H27.7998V0.14209H36.3303V28.4948ZM28.4362 27.8584H35.694V0.77846H28.4362V27.8584Z" fill="#414042"/>
<path d="M11.3709 0.45752H3.4873V28.1738H11.3709V0.45752Z" fill="white"/>
<path d="M11.686 28.4948H3.16602V0.14209H11.686V28.4948ZM3.80239 27.8584H11.0496V0.77846H3.80239V27.8584Z" fill="#414042"/>
<path d="M21.3424 12.3853C21.274 12.3853 21.2056 12.3643 21.1478 12.317C21.011 12.2118 20.9847 12.0119 21.0899 11.8699L24.5505 7.41535C24.661 7.27861 24.8555 7.25231 24.9975 7.3575C25.1343 7.46268 25.1606 7.66253 25.0554 7.80453L21.5948 12.2591C21.5317 12.338 21.437 12.3801 21.3424 12.3801V12.3853Z" fill="#414042"/>
<path d="M20.4527 16.3722C20.3843 16.3722 20.316 16.3511 20.2581 16.3038C20.1214 16.1986 20.0951 15.9988 20.2003 15.8568L23.6609 11.4022C23.766 11.2654 23.9659 11.2391 24.1079 11.3443C24.2446 11.4495 24.2709 11.6493 24.1658 11.7913L20.7052 16.2459C20.642 16.3248 20.5474 16.3669 20.4527 16.3669V16.3722Z" fill="#414042"/>
<path d="M30.2457 14.6363C30.1773 14.6363 30.1089 14.6153 30.0511 14.568C29.9143 14.4628 29.8881 14.2629 29.9932 14.1209L33.4538 9.66632C33.559 9.52958 33.7589 9.50329 33.9009 9.60847C34.0376 9.71366 34.0639 9.91351 33.9587 10.0555L30.4981 14.5101C30.435 14.589 30.3403 14.6311 30.2457 14.6311V14.6363Z" fill="#414042"/>
<path d="M5.46931 24.9132C5.40094 24.9132 5.33257 24.8921 5.27472 24.8448C5.13798 24.7396 5.11169 24.5398 5.21687 24.3978L8.67746 19.9432C8.78265 19.8064 8.9825 19.7801 9.1245 19.8853C9.26124 19.9905 9.28754 20.1904 9.18235 20.3324L5.72176 24.787C5.65865 24.8658 5.56398 24.9079 5.46931 24.9079V24.9132Z" fill="#414042"/>
<path d="M36.9143 26.4434H2.66602V28.8731H36.9143V26.4434Z" fill="white"/>
<path d="M37.2353 29.1887H2.35059V26.1226H37.2353V29.1887ZM2.98696 28.5523H36.5989V26.7589H2.98696V28.5523Z" fill="#414042"/>
<path d="M6.80951 14.8889C6.80951 14.8889 7.66151 26.4908 7.66151 35.1739L2.5127 35.0371V16.3405C2.5127 16.3405 4.07995 13.4321 6.80951 14.8889Z" fill="#434343"/>
<path d="M7.98245 35.5001L2.19727 35.3476V16.2618L2.23408 16.1934C2.24986 16.1618 3.98541 13.0273 6.95689 14.6104L7.10941 14.6945L7.11993 14.8681C7.13045 14.9838 7.97719 26.5804 7.97719 35.1793V35.5054L7.98245 35.5001ZM2.83364 34.727L7.34608 34.848C7.32504 26.9013 6.60978 16.5721 6.5046 15.089C5.54741 14.6314 4.64808 14.7103 3.82764 15.3204C3.28067 15.7253 2.93882 16.2407 2.83364 16.4248V34.727Z" fill="#414042"/>
<path d="M13.1469 2.08252C13.1469 2.08252 10.4542 20.2322 2.5127 21.7048V2.08252H13.1469Z" fill="#434343"/>
<path d="M2.19727 22.0835V1.76172H13.5152L13.4626 2.12461C13.4573 2.17194 12.7684 6.7475 11.1117 11.444C10.1335 14.2156 9.01853 16.4876 7.78786 18.1969C6.22586 20.3742 4.46927 21.6575 2.57593 22.0099L2.20252 22.0782L2.19727 22.0835ZM2.83364 2.39809V21.3051C4.42193 20.8896 5.9103 19.7221 7.26719 17.8288C8.46104 16.1668 9.54971 13.9474 10.5069 11.2336C11.8743 7.35757 12.5738 3.56564 12.7736 2.39809H2.83364Z" fill="#414042"/>
<path d="M32.6225 14.8889C32.6225 14.8889 31.7705 26.4908 31.7705 35.1739L36.9193 35.0371V16.3405C36.9193 16.3405 35.3521 13.4321 32.6225 14.8889Z" fill="#434343"/>
<path d="M31.4496 35.5V35.174C31.4496 26.5803 32.2963 14.9784 32.3069 14.8627L32.3174 14.6891L32.4699 14.605C35.4414 13.022 37.1769 16.1565 37.1927 16.188L37.2295 16.2564V35.3422L31.4443 35.4948L31.4496 35.5ZM32.9274 15.0888C32.8223 16.572 32.107 26.9011 32.086 34.8479L36.5984 34.7269V16.4247C36.3617 16.025 35.0574 14.0791 32.9274 15.0888Z" fill="#414042"/>
<path d="M26.2852 2.08252C26.2852 2.08252 28.9779 20.2322 36.9141 21.7048V2.08252H26.2852Z" fill="#434343"/>
<path d="M37.2345 22.0836L36.8611 22.0152C34.9678 21.6629 33.2112 20.3796 31.6492 18.2023C30.4185 16.4878 29.3036 14.2158 28.3254 11.4494C26.6687 6.75287 25.9797 2.17731 25.9745 2.12998L25.9219 1.76709H37.2398V22.0836H37.2345ZM26.6582 2.3982C26.8528 3.56576 27.5575 7.36294 28.9249 11.239C29.8821 13.9475 30.9708 16.1669 32.1646 17.8289C33.5215 19.7222 35.0099 20.8845 36.5982 21.3V2.3982H26.6582Z" fill="#414042"/>
<path d="M38.3657 0.31543H1.23535V5.16973H38.3657V0.31543Z" fill="white"/>
<path d="M38.6867 5.49067H0.919922V0H38.6867V5.49067ZM1.55629 4.8543H38.0503V0.63637H1.55629V4.8543Z" fill="#414042"/>
<path d="M5.46943 33.5802C5.29588 33.5802 5.15914 33.4435 5.15388 33.2699C5.15388 33.2068 4.96454 26.9535 4.49121 19.985V19.9061L4.51751 19.8325C5.64825 17.2449 6.77373 8.15169 6.78425 8.06228C6.80528 7.88873 6.96306 7.7625 7.13662 7.78354C7.31017 7.80458 7.4364 7.96236 7.41536 8.13591C7.36803 8.50932 6.28988 17.2555 5.13284 20.0113C5.60617 26.9588 5.79025 33.1805 5.79551 33.2436C5.79551 33.4172 5.66403 33.5644 5.48521 33.5697C5.48521 33.5697 5.47995 33.5697 5.47469 33.5697L5.46943 33.5802Z" fill="#414042"/>
<path d="M7.09351 18.2339H2.5127V21.6997H7.09351V18.2339Z" fill="white"/>
<path d="M7.41445 22.0207H2.19727V17.9185H7.41445V22.0207ZM2.83364 21.3843H6.77808V18.5496H2.83364V21.3843Z" fill="#414042"/>
<path d="M33.9215 33.5804C33.9215 33.5804 33.9162 33.5804 33.911 33.5804C33.7374 33.5804 33.5954 33.4279 33.6007 33.2544C33.6007 33.1912 33.7847 26.9695 34.2633 20.0221C33.1063 17.261 32.0229 8.52006 31.9808 8.14665C31.9598 7.9731 32.086 7.81532 32.2595 7.79428C32.4331 7.77325 32.5909 7.89947 32.6119 8.07303C32.6224 8.16243 33.7479 17.2557 34.8787 19.8432L34.9102 19.9169V19.9958C34.4264 26.959 34.2423 33.2175 34.2423 33.2807C34.2423 33.4542 34.095 33.591 33.9267 33.591L33.9215 33.5804Z" fill="#414042"/>
<path d="M36.9207 18.2339H32.3398V21.6997H36.9207V18.2339Z" fill="white"/>
<path d="M37.2357 22.0207H32.0186V17.9185H37.2357V22.0207ZM32.6549 21.3843H36.5994V18.5496H32.6549V21.3843Z" fill="#414042"/>
</g>
<defs>
<clipPath id="clip0_537_4046">
<rect width="37.7667" height="35.5" fill="white" transform="translate(0.919922)"/>
</clipPath>
</defs>
</svg>
