<svg width="23" height="32" viewBox="0 0 23 32" fill="none" xmlns="http://www.w3.org/2000/svg">
<g clip-path="url(#clip0_537_4090)">
<path d="M22.6945 8.57324H1.04883V31.4451H22.6945V8.57324Z" fill="white"/>
<path d="M22.9896 31.7299H0.759766V8.27881H22.9896V31.7299ZM1.34387 31.1458H22.4055V8.86292H1.34387V31.1507V31.1458Z" fill="#414042"/>
<path d="M22.6945 8.57324H1.04883V13.2413H22.6945V8.57324Z" fill="white"/>
<path d="M22.9896 13.5309H0.759766V8.27881H22.9896V13.5309ZM1.34387 12.9468H22.4055V8.86292H1.34387V12.9468Z" fill="#414042"/>
<path d="M18.1523 19.9415H17.2641C16.4675 17.7644 14.3821 16.21 11.9299 16.21C8.7921 16.21 6.25293 18.754 6.25293 21.8869C6.25293 25.0198 8.79693 27.5638 11.9299 27.5638C14.4594 27.5638 16.6027 25.9081 17.3365 23.6199H18.1523V19.9415Z" fill="white"/>
<path d="M11.9304 27.8584C8.6382 27.8584 5.96387 25.1793 5.96387 21.8919C5.96387 18.6045 8.64303 15.9253 11.9304 15.9253C14.3586 15.9253 16.5598 17.4169 17.4674 19.6568H18.1577C18.317 19.6568 18.4473 19.7872 18.4473 19.9465V23.6249C18.4473 23.7842 18.317 23.9145 18.1577 23.9145H17.5494C16.6998 26.2847 14.4696 27.8584 11.9353 27.8584H11.9304ZM11.9304 16.5046C8.96164 16.5046 6.54315 18.9182 6.54315 21.8919C6.54315 24.8655 8.95681 27.2792 11.9304 27.2792C14.2813 27.2792 16.3426 25.7779 17.0619 23.538C17.1005 23.4173 17.2115 23.3352 17.3419 23.3352H17.868V20.2409H17.2695C17.1488 20.2409 17.0378 20.1637 16.9943 20.0478C16.2219 17.9286 14.1896 16.5094 11.9353 16.5094L11.9304 16.5046Z" fill="#434343"/>
<path d="M16.3149 22.9201C16.8869 20.4965 15.386 18.0682 12.9625 17.4962C10.539 16.9242 8.11063 18.4252 7.53863 20.8487C6.96663 23.2722 8.46757 25.7005 10.8911 26.2725C13.3146 26.8445 15.7429 25.3436 16.3149 22.9201Z" fill="white"/>
<path d="M11.9301 26.6904C9.27994 26.6904 7.12695 24.5374 7.12695 21.8872C7.12695 19.237 9.27994 17.084 11.9301 17.084C14.5803 17.084 16.7333 19.237 16.7333 21.8872C16.7333 24.5374 14.5803 26.6904 11.9301 26.6904ZM11.9301 17.6681C9.60337 17.6681 7.71106 19.5604 7.71106 21.8872C7.71106 24.2139 9.60337 26.1063 11.9301 26.1063C14.2569 26.1063 16.1492 24.2139 16.1492 21.8872C16.1492 19.5604 14.2569 17.6681 11.9301 17.6681Z" fill="#434343"/>
<path d="M12.9346 11.1172C12.9346 11.7013 12.4615 12.1792 11.8726 12.1792C11.2836 12.1792 10.8105 11.7061 10.8105 11.1172C10.8105 10.5283 11.2836 10.0552 11.8726 10.0552C12.4615 10.0552 12.9346 10.5283 12.9346 11.1172Z" fill="#434343"/>
<path d="M11.877 12.4689C11.1288 12.4689 10.5254 11.8607 10.5254 11.1173C10.5254 10.3739 11.1336 9.76562 11.877 9.76562C12.6204 9.76562 13.2287 10.3739 13.2287 11.1173C13.2287 11.8607 12.6204 12.4689 11.877 12.4689ZM11.877 10.3449C11.4522 10.3449 11.1095 10.6876 11.1095 11.1124C11.1095 11.5373 11.4522 11.88 11.877 11.88C12.3018 11.88 12.6446 11.5373 12.6446 11.1124C12.6446 10.6876 12.297 10.3449 11.877 10.3449Z" fill="#414042"/>
<path d="M12.2198 9.12842H11.6357V10.3497H12.2198V9.12842Z" fill="#414042"/>
<path d="M7.84087 9.73682H2.32324V11.8077H7.84087V9.73682Z" fill="white"/>
<path d="M8.13592 12.0974H2.03418V9.44238H8.13592V12.0974ZM2.61829 11.5133H7.55181V10.0265H2.61829V11.5133Z" fill="#262626"/>
<path d="M21.6426 10.9048C21.6426 11.2572 21.3578 11.542 21.0054 11.542C20.653 11.542 20.3682 11.2572 20.3682 10.9048C20.3682 10.5524 20.653 10.2676 21.0054 10.2676C21.3578 10.2676 21.6426 10.5524 21.6426 10.9048Z" fill="#434343"/>
<path d="M21.0059 11.8317C20.4943 11.8317 20.0791 11.4166 20.0791 10.9049C20.0791 10.3932 20.4943 9.97803 21.0059 9.97803C21.5176 9.97803 21.9328 10.3932 21.9328 10.9049C21.9328 11.4166 21.5176 11.8317 21.0059 11.8317ZM21.0059 10.5573C20.8177 10.5573 20.6632 10.7118 20.6632 10.9C20.6632 11.0883 20.8177 11.2428 21.0059 11.2428C21.1942 11.2428 21.3487 11.0883 21.3487 10.9C21.3487 10.7118 21.1942 10.5573 21.0059 10.5573Z" fill="#414042"/>
<path d="M18.8232 9.44678H14.7393V10.0309H18.8232V9.44678Z" fill="#414042"/>
<path d="M18.8232 10.48H14.7393V11.0641H18.8232V10.48Z" fill="#414042"/>
<path d="M18.8232 11.5181H14.7393V12.1022H18.8232V11.5181Z" fill="#414042"/>
<path d="M7.5466 0.289551H5.39844V8.56841H7.5466V0.289551Z" fill="#434343"/>
<path d="M7.83676 8.86297H5.10449V0H7.83676V8.86297ZM5.6886 8.27886H7.25265V0.584106H5.6886V8.27886Z" fill="#414042"/>
<path d="M12.0507 3.89055V1.6748H9.70947H7.36339V3.89055L6.52344 6.53109V8.57305H9.70947H12.8907V6.53109L12.0507 3.89055Z" fill="white"/>
<path d="M13.1809 8.86278H6.23438V6.48774L7.07433 3.84719V1.38525H12.3409V3.84236L13.1809 6.48291V8.85795V8.86278ZM6.81365 8.27867H12.5968V6.57463L11.7568 3.93408V1.96936H7.65844V3.93408L6.81848 6.57463V8.27867H6.81365Z" fill="#414042"/>
<path d="M12.0448 1.6748H7.3623V3.15679H12.0448V1.6748Z" fill="white"/>
<path d="M12.3399 3.45135H7.07324V1.38525H12.3399V3.45135ZM7.65735 2.86724H11.7557V1.96936H7.65735V2.86724Z" fill="#414042"/>
<path d="M12.8134 6.53125H6.52344V8.57321H12.8134V6.53125Z" fill="white"/>
<path d="M12.814 8.86294H6.52401L6.23438 8.5733V6.53134L6.52401 6.2417H12.814L13.1037 6.53134V8.5733L12.814 8.86294ZM6.81848 8.27883H12.5244V6.82098H6.81848V8.27883Z" fill="#414042"/>
</g>
<defs>
<clipPath id="clip0_537_4090">
<rect width="22.2298" height="31.73" fill="white" transform="translate(0.759766)"/>
</clipPath>
</defs>
</svg>
