<svg width="41" height="31" viewBox="0 0 41 31" fill="none" xmlns="http://www.w3.org/2000/svg">
<g clip-path="url(#clip0_537_4128)">
<path d="M11.8457 16.4209H0.287109V18.6628H11.8457V16.4209Z" fill="white"/>
<path d="M12.138 18.9502H0.000976562V16.1299H12.138V18.9502ZM0.579384 18.3718H11.5596V16.7083H0.579384V18.3718Z" fill="#414042"/>
<path d="M10.9817 18.3765H10.4033V30.1454H10.9817V18.3765Z" fill="#414042"/>
<path d="M0.579384 1.68408H0.000976562V30.1408H0.579384V1.68408Z" fill="#414042"/>
<path d="M1.28618 1.9707H0.287109V10.6755H1.28618V1.9707Z" fill="white"/>
<path d="M1.57845 10.9625H0.000976562V1.68408H1.57845V10.9625ZM0.579384 10.3841H1.00004V2.26249H0.579384V10.3841Z" fill="#414042"/>
<path d="M40.7129 16.4214H29.1543V18.6633H40.7129V16.4214Z" fill="white"/>
<path d="M41.0003 18.9502H28.8633V16.1299H41.0003V18.9502ZM29.4417 18.3718H40.4219V16.7083H29.4417V18.3718Z" fill="#414042"/>
<path d="M30.5979 18.3765H30.0195V30.1454H30.5979V18.3765Z" fill="#414042"/>
<path d="M41.0003 1.68359H40.4219V30.1403H41.0003V1.68359Z" fill="#414042"/>
<path d="M40.7129 1.97021H39.7139V10.675H40.7129V1.97021Z" fill="white"/>
<path d="M41.0003 10.962H39.4229V1.68359H41.0003V10.962ZM40.0013 10.3836H40.4219V2.262H40.0013V10.3836Z" fill="#414042"/>
<path d="M5.55917 10.5225H4.12988V29.8537H5.55917V10.5225Z" fill="white"/>
<path d="M5.84656 30.1406H3.83887V10.231H5.84656V30.1406ZM4.41727 29.5622H5.26816V10.8094H4.41727V29.5622Z" fill="#414042"/>
<path d="M36.9039 10.5225H35.4746V29.8537H36.9039V10.5225Z" fill="white"/>
<path d="M37.1962 30.1411H35.1885V10.2314H37.1962V30.1411ZM35.7669 29.5627H36.6178V10.8099H35.7669V29.5627Z" fill="#414042"/>
<path d="M36.9079 7.21924H4.12988V10.6753H36.9079V7.21924Z" fill="white"/>
<path d="M37.1953 10.9623H3.83887V6.93262H37.1953V10.9671V10.9623ZM4.41727 10.3839H36.6169V7.50624H4.41727V10.3839Z" fill="#414042"/>
<path d="M7.43359 7.27197L20.6748 16.0867L33.4954 7.27197H7.43359Z" fill="#434343"/>
<path d="M20.6796 16.4359L6.47754 6.98535H34.4227L20.6748 16.4359H20.6796ZM8.38963 7.56376L20.67 15.7379L32.5632 7.56376H8.38963Z" fill="#414042"/>
<path d="M24.3418 3.10861C24.3418 3.78262 24.8867 4.32756 25.5608 4.32756C26.2348 4.32756 26.7797 3.78262 26.7797 3.10861C26.7797 2.43459 26.2348 1.88965 25.5608 1.88965C24.8867 1.88965 24.3418 2.43459 24.3418 3.10861Z" fill="white"/>
<path d="M25.5556 4.61457C24.7238 4.61457 24.0498 3.94056 24.0498 3.1088C24.0498 2.27704 24.7238 1.60303 25.5556 1.60303C26.3873 1.60303 27.0613 2.27704 27.0613 3.1088C27.0613 3.94056 26.3873 4.61457 25.5556 4.61457ZM25.5556 2.18143C25.0441 2.18143 24.6282 2.59731 24.6282 3.1088C24.6282 3.62028 25.0441 4.03616 25.5556 4.03616C26.0671 4.03616 26.4829 3.62028 26.4829 3.1088C26.4829 2.59731 26.0671 2.18143 25.5556 2.18143Z" fill="#414042"/>
<path d="M26.7736 2.84124C27.4469 2.84124 27.9926 2.29549 27.9926 1.62228C27.9926 0.949066 27.4469 0.40332 26.7736 0.40332C26.1004 0.40332 25.5547 0.949066 25.5547 1.62228C25.5547 2.29549 26.1004 2.84124 26.7736 2.84124Z" fill="white"/>
<path d="M26.7743 3.12824C25.9426 3.12824 25.2686 2.45423 25.2686 1.62247C25.2686 0.790711 25.9426 0.116699 26.7743 0.116699C27.6061 0.116699 28.2801 0.790711 28.2801 1.62247C28.2801 2.45423 27.6061 3.12824 26.7743 3.12824ZM26.7743 0.695107C26.2628 0.695107 25.847 1.11099 25.847 1.62247C25.847 2.13396 26.2628 2.54983 26.7743 2.54983C27.2858 2.54983 27.7017 2.13396 27.7017 1.62247C27.7017 1.11099 27.2858 0.695107 26.7743 0.695107Z" fill="#414042"/>
<path d="M27.4565 5.12146C28.3251 5.12146 29.0292 4.41734 29.0292 3.54877C29.0292 2.68019 28.3251 1.97607 27.4565 1.97607C26.5879 1.97607 25.8838 2.68019 25.8838 3.54877C25.8838 4.41734 26.5879 5.12146 27.4565 5.12146Z" fill="white"/>
<path d="M27.4572 5.40798C26.4294 5.40798 25.5977 4.57144 25.5977 3.54847C25.5977 2.5255 26.4342 1.68896 27.4572 1.68896C28.4801 1.68896 29.3167 2.5255 29.3167 3.54847C29.3167 4.57144 28.4801 5.40798 27.4572 5.40798ZM27.4572 2.26737C26.7497 2.26737 26.1761 2.841 26.1761 3.54847C26.1761 4.25595 26.7497 4.82957 27.4572 4.82957C28.1646 4.82957 28.7383 4.25595 28.7383 3.54847C28.7383 2.841 28.1646 2.26737 27.4572 2.26737Z" fill="#414042"/>
<path d="M26.9945 3.57227H30.0442C30.0442 3.57227 29.6379 6.75112 26.6168 6.75112C23.5957 6.75112 23.2324 3.57227 23.2324 3.57227H26.9992H26.9945Z" fill="white"/>
<path d="M26.6128 7.03812C24.9158 7.03812 24.0028 6.09642 23.5391 5.30768C23.0467 4.47114 22.9463 3.63938 22.9416 3.60592L22.9033 3.28564H30.37L30.327 3.6107C30.327 3.64416 30.2123 4.47592 29.7056 5.31246C29.2276 6.1012 28.305 7.03812 26.608 7.03812H26.6128ZM23.5773 3.85927C23.6443 4.14609 23.7829 4.59065 24.0458 5.02565C24.6099 5.97691 25.4751 6.45493 26.6128 6.45493C27.7505 6.45493 28.6348 5.96735 29.2132 5.00653C29.4761 4.57153 29.6148 4.14131 29.6865 3.85449H23.5773V3.85927Z" fill="#414042"/>
</g>
<defs>
<clipPath id="clip0_537_4128">
<rect width="41" height="30.0246" fill="white" transform="translate(0 0.116699)"/>
</clipPath>
</defs>
</svg>
