<svg width="38" height="40" viewBox="0 0 38 40" fill="none" xmlns="http://www.w3.org/2000/svg">
<g clip-path="url(#clip0_537_3977)">
<path d="M35.6919 0.305176H2.88132C1.8849 0.305176 1.07715 1.11293 1.07715 2.10935V37.1561C1.07715 38.1525 1.8849 38.9602 2.88132 38.9602H35.6919C36.6883 38.9602 37.496 38.1525 37.496 37.1561V2.10935C37.496 1.11293 36.6883 0.305176 35.6919 0.305176Z" fill="white"/>
<path d="M35.6921 39.27H2.88665C1.72283 39.27 0.772461 38.3247 0.772461 37.1558V2.11419C0.772461 0.945285 1.71775 0 2.88665 0H35.6921C36.8559 0 37.8063 0.945285 37.8063 2.11419V37.1558C37.8063 38.3196 36.861 39.27 35.6921 39.27ZM2.88665 0.614944C2.05825 0.614944 1.3874 1.28579 1.3874 2.11419V37.1558C1.3874 37.9842 2.05825 38.6551 2.88665 38.6551H35.6921C36.5205 38.6551 37.1914 37.9842 37.1914 37.1558V2.11419C37.1914 1.28579 36.5205 0.614944 35.6921 0.614944H2.88665Z" fill="#414042"/>
<path d="M16 0H9V39H16V0Z" fill="#434343"/>
<path d="M23.1692 39.27H8.20215V0H23.1743V39.27H23.1692ZM8.81201 38.6551H22.5542V0.614944H8.81709V38.6551H8.81201Z" fill="#414042"/>
<path d="M8.81807 0.305176H8.20312V38.9602H8.81807V0.305176Z" fill="#414042"/>
<path d="M23.1755 0.305176H22.5605V38.9602H23.1755V0.305176Z" fill="#414042"/>
<path d="M21.7307 22.0209C21.563 22.0209 21.4258 21.8837 21.4258 21.716V18.1077C21.4258 17.94 21.563 17.8027 21.7307 17.8027C21.8984 17.8027 22.0356 17.94 22.0356 18.1077V21.716C22.0356 21.8837 21.8984 22.0209 21.7307 22.0209Z" fill="#414042"/>
<path d="M23.9631 22.0209C23.7954 22.0209 23.6582 21.8837 23.6582 21.716V18.1077C23.6582 17.94 23.7954 17.8027 23.9631 17.8027C24.1308 17.8027 24.2681 17.94 24.2681 18.1077V21.716C24.2681 21.8837 24.1308 22.0209 23.9631 22.0209Z" fill="#414042"/>
<path d="M8.70524 29.4463H0.90918V30.0612H8.70524V29.4463Z" fill="#414042"/>
<path d="M8.70524 19.6074H0.90918V20.2224H8.70524V19.6074Z" fill="#414042"/>
<path d="M8.70524 10.1089H0.90918V10.7238H8.70524V10.1089Z" fill="#414042"/>
<path d="M8.39549 28.5161H3.5166V29.7562H8.39549V28.5161Z" fill="white"/>
<path d="M8.70595 30.0611H3.20703V28.2061H8.70595V30.0611ZM3.82706 29.4461H8.09101V28.821H3.82197V29.4461H3.82706Z" fill="#414042"/>
<path d="M7.56151 25.8325H2.68262V27.0726H7.56151V25.8325Z" fill="white"/>
<path d="M7.87196 27.3823H2.37305V25.5273H7.87196V27.3823ZM2.99307 26.7674H7.25702V26.1423H2.98799V26.7674H2.99307Z" fill="#414042"/>
<path d="M6.44466 7.44547C6.44466 7.89779 6.07874 8.25862 5.63151 8.25862C5.18428 8.25862 4.81836 7.8927 4.81836 7.44547C4.81836 6.99824 5.18428 6.63232 5.63151 6.63232C6.07874 6.63232 6.44466 6.99824 6.44466 7.44547Z" fill="white"/>
<path d="M5.63195 8.56859C5.01192 8.56859 4.50879 8.06545 4.50879 7.44543C4.50879 6.8254 5.01192 6.32227 5.63195 6.32227C6.25198 6.32227 6.75511 6.8254 6.75511 7.44543C6.75511 8.06545 6.25198 8.56859 5.63195 8.56859ZM5.63195 6.93721C5.35243 6.93721 5.12373 7.16591 5.12373 7.44543C5.12373 7.72495 5.35243 7.95364 5.63195 7.95364C5.91147 7.95364 6.14017 7.72495 6.14017 7.44543C6.14017 7.16591 5.91147 6.93721 5.63195 6.93721Z" fill="#414042"/>
<path d="M7.18651 27.1289H2.30762V28.369H7.18651V27.1289Z" fill="white"/>
<path d="M7.49677 28.6738H2.00293V26.8188H7.49677V28.6738ZM2.61787 28.0589H6.88182V27.4338H2.61787V28.0589Z" fill="#414042"/>
<path d="M5.40773 7.74049C5.40773 8.31986 4.93509 8.7925 4.35572 8.7925C3.77635 8.7925 3.30371 8.31986 3.30371 7.74049C3.30371 7.16112 3.77635 6.68848 4.35572 6.68848C4.93509 6.68848 5.40773 7.16112 5.40773 7.74049Z" fill="white"/>
<path d="M4.35616 9.09709C3.604 9.09709 2.99414 8.48723 2.99414 7.73507C2.99414 6.98291 3.604 6.37305 4.35616 6.37305C5.10833 6.37305 5.71819 6.98291 5.71819 7.73507C5.71819 8.48723 5.10833 9.09709 4.35616 9.09709ZM4.35616 6.99307C3.94451 6.99307 3.60908 7.3285 3.60908 7.74015C3.60908 8.15181 3.94451 8.48723 4.35616 8.48723C4.76782 8.48723 5.10325 8.15181 5.10325 7.74015C5.10325 7.3285 4.76782 6.99307 4.35616 6.99307Z" fill="#414042"/>
<path d="M4.66706 7.75537H2.62402C2.62402 7.75537 2.89338 9.8848 4.92117 9.8848C6.94896 9.8848 7.18782 7.75537 7.18782 7.75537H4.66706Z" fill="white"/>
<path d="M4.92028 10.1902C3.10086 10.1902 2.42493 8.61978 2.3182 7.79139L2.27246 7.4458H7.53252L7.49186 7.78631C7.3953 8.6147 6.7397 10.1902 4.91519 10.1902H4.92028ZM3.00429 8.06074C3.16692 8.59946 3.64465 9.57523 4.92028 9.57523C6.1959 9.57523 6.6533 8.59946 6.81085 8.06074H3.00938H3.00429Z" fill="#414042"/>
</g>
<defs>
<clipPath id="clip0_537_3977">
<rect width="37.0338" height="39.27" fill="white" transform="translate(0.772461)"/>
</clipPath>
</defs>
</svg>
