
<svg width="46" height="33" viewBox="0 0 46 33" fill="none" xmlns="http://www.w3.org/2000/svg">
<path d="M5.61091 28.0474H2.42285V31.2354H5.61091V28.0474Z" fill="#414042"/>
<path d="M5.52734 14.3854H10.8102V11.5395C10.8102 9.61165 9.21614 8.10107 7.37174 8.10107H5.52734V14.3854Z" fill="#434343"/>
<path d="M18.0957 12.7913C18.0957 13.6259 18.7634 14.3853 19.6897 14.3853H38.5427C39.3772 14.3853 40.1367 13.7177 40.1367 12.7913C40.1367 11.8649 39.469 11.1973 38.5427 11.1973H19.6897C18.7717 11.2807 18.0957 11.9484 18.0957 12.7913Z" fill="#434343"/>
<path d="M42.8244 15.8875V26.5366H41.6477H0.74541V19.9936H37.5333C37.7942 19.9936 38.0201 19.8673 38.1726 19.7149C38.325 19.5624 38.4513 19.3365 38.4513 19.0756C38.4513 18.8147 38.325 18.5887 38.1726 18.4362C38.0201 18.2838 37.7942 18.1575 37.5333 18.1575H0.74541V15.8875H42.8244ZM42.1484 19.1674C42.1484 18.3423 41.4505 17.6568 40.6379 17.6568C39.8148 17.6568 39.1273 18.3444 39.1273 19.1674C39.1273 19.9904 39.8148 20.6779 40.6379 20.6779C41.4609 20.6779 42.1484 19.9904 42.1484 19.1674Z" fill="white" stroke="#414042" stroke-width="0.83457"/>
<path d="M4.51767 7.59999V2.90971C4.51767 1.73297 3.59964 0.814941 2.4229 0.814941C1.24615 0.814941 0.328125 1.73297 0.328125 2.90971V14.3934H4.51767V7.60834V7.59999Z" fill="#434343"/>
<path d="M44.8281 30.6429H41.1393V28.0474H37.9512V30.6429H15.4929C15.2426 30.6429 14.9922 30.8932 14.9922 31.1436C14.9922 31.394 15.2426 31.6444 15.4929 31.6444H44.8281C45.0784 31.6444 45.3288 31.394 45.3288 31.1436C45.3288 30.8932 45.0784 30.6429 44.8281 30.6429Z" fill="#414042"/>
<path d="M12.312 30.0586C12.9129 30.0586 13.4053 30.5426 13.4053 31.1519C13.4053 31.7611 12.9213 32.2452 12.312 32.2452C11.7028 32.2452 11.2188 31.7611 11.2188 31.1519C11.2188 30.5426 11.7028 30.0586 12.312 30.0586Z" fill="#414042"/>
</svg>
