<svg width="15" height="31" viewBox="0 0 15 31" fill="none" xmlns="http://www.w3.org/2000/svg">
<path d="M7.42875 29.2614C7.25417 29.2614 7.11133 29.1186 7.11133 28.944V16.5328C7.11133 16.3582 7.25417 16.2153 7.42875 16.2153C7.60333 16.2153 7.74617 16.3582 7.74617 16.5328V28.944C7.74617 29.1186 7.60333 29.2614 7.42875 29.2614Z" fill="#414042"/>
<path d="M12.6611 22.1243H2.19669C1.52481 22.1243 0.974609 21.5794 0.974609 20.9023C0.974609 20.2304 1.51952 19.6802 2.19669 19.6802H12.6611C13.333 19.6802 13.8832 20.2251 13.8832 20.9023C13.8832 21.5741 13.3383 22.1243 12.6611 22.1243Z" fill="white"/>
<path d="M12.6611 22.4418H2.19673C1.34498 22.4418 0.657227 21.7488 0.657227 20.9023C0.657227 20.0558 1.35027 19.3628 2.19673 19.3628H12.6611C13.5129 19.3628 14.2006 20.0558 14.2006 20.9023C14.2006 21.7488 13.5076 22.4418 12.6611 22.4418ZM2.19673 19.9976C1.69943 19.9976 1.29736 20.3997 1.29736 20.897C1.29736 21.3943 1.69943 21.7964 2.19673 21.7964H12.6611C13.1584 21.7964 13.5605 21.3943 13.5605 20.897C13.5605 20.3997 13.1584 19.9976 12.6611 19.9976H2.19673Z" fill="#434343"/>
<path d="M11.4384 29.4464C11.2638 29.4464 11.121 29.3036 11.121 29.129V27.9492H3.61922V29.129C3.61922 29.3036 3.47638 29.4464 3.3018 29.4464C3.12722 29.4464 2.98438 29.3036 2.98438 29.129V27.3091H11.7611V29.129C11.7611 29.3036 11.6183 29.4464 11.4437 29.4464H11.4384Z" fill="#414042"/>
<path d="M12.0051 3.32275H2.8527C1.81546 3.32275 0.974609 4.1636 0.974609 5.20084V15.115C0.974609 16.1523 1.81546 16.9931 2.8527 16.9931H12.0051C13.0423 16.9931 13.8832 16.1523 13.8832 15.115V5.20084C13.8832 4.1636 13.0423 3.32275 12.0051 3.32275Z" fill="white"/>
<path d="M5.25283 1.75H9.50693C9.72976 1.75 9.9215 1.72123 10.0491 1.68106C10.0846 1.66989 10.1111 1.6591 10.1299 1.65004V0.349964C10.1111 0.340898 10.0846 0.330113 10.0491 0.318944C9.9215 0.278768 9.72976 0.25 9.50693 0.25H5.25283C5.03001 0.25 4.83826 0.278768 4.71062 0.318944C4.67514 0.330113 4.6487 0.340898 4.62988 0.349963V1.65004C4.6487 1.6591 4.67514 1.66989 4.71062 1.68106C4.83826 1.72123 5.03001 1.75 5.25283 1.75ZM10.1658 1.62859C10.1658 1.62859 10.1653 1.62897 10.1645 1.62974L10.1658 1.62859ZM4.59397 1.62859C4.59394 1.62859 4.59435 1.62898 4.59528 1.62973L4.59397 1.62859Z" fill="white" stroke="#262626" stroke-width="0.5"/>
<path d="M12.0055 17.3158H2.85315C1.64165 17.3158 0.652344 16.3318 0.652344 15.115V5.2008C0.652344 3.9893 1.63636 3 2.85315 3H12.0055C13.217 3 14.2063 3.98401 14.2063 5.2008V15.115C14.2063 16.3265 13.2223 17.3158 12.0055 17.3158ZM2.85315 3.64543C1.99081 3.64543 1.29248 4.34376 1.29248 5.20609V15.1203C1.29248 15.9826 1.99081 16.681 2.85315 16.681H12.0055C12.8679 16.681 13.5662 15.9826 13.5662 15.1203V5.2008C13.5662 4.33847 12.8679 3.64014 12.0055 3.64014H2.85315V3.64543Z" fill="#414042"/>
<path d="M3.24445 30.653C2.95348 30.653 2.7207 30.4203 2.7207 30.1293V29.6531C2.7207 29.3622 2.95348 29.1294 3.24445 29.1294C3.53542 29.1294 3.7682 29.3622 3.7682 29.6531V30.1293C3.7682 30.4203 3.53542 30.653 3.24445 30.653Z" fill="white"/>
<path d="M3.24449 30.97C2.77894 30.97 2.40332 30.5944 2.40332 30.1288V29.6527C2.40332 29.1871 2.78423 28.8115 3.24449 28.8115C3.70476 28.8115 4.08566 29.1871 4.08566 29.6527V30.1288C4.08566 30.5944 3.70476 30.97 3.24449 30.97ZM3.24449 29.4464C3.13339 29.4464 3.04346 29.5363 3.04346 29.6474V30.1235C3.04346 30.2346 3.13339 30.3246 3.24449 30.3246C3.35559 30.3246 3.44553 30.2346 3.44553 30.1235V29.6474C3.44553 29.5363 3.35559 29.4464 3.24449 29.4464Z" fill="#434343"/>
<path d="M11.4388 30.6525C11.1478 30.6525 10.915 30.4198 10.915 30.1288V29.6527C10.915 29.3617 11.1478 29.1289 11.4388 29.1289C11.7298 29.1289 11.9625 29.3617 11.9625 29.6527V30.1288C11.9625 30.4198 11.7298 30.6525 11.4388 30.6525Z" fill="white"/>
<path d="M11.4388 30.97C10.9733 30.97 10.5977 30.5944 10.5977 30.1288V29.6527C10.5977 29.1871 10.9733 28.8115 11.4388 28.8115C11.9044 28.8115 12.28 29.1871 12.28 29.6527V30.1288C12.28 30.5944 11.8991 30.97 11.4388 30.97ZM11.4388 29.4464C11.3277 29.4464 11.2378 29.5363 11.2378 29.6474V30.1235C11.2378 30.2346 11.3277 30.3246 11.4388 30.3246C11.5499 30.3246 11.6399 30.2346 11.6399 30.1235V29.6474C11.6399 29.5363 11.5499 29.4464 11.4388 29.4464Z" fill="#434343"/>
<path d="M7.42902 30.0705C7.13805 30.0705 6.90527 29.8377 6.90527 29.5468V29.0706C6.90527 28.7797 7.13805 28.5469 7.42902 28.5469C7.71999 28.5469 7.95277 28.7797 7.95277 29.0706V29.5468C7.95277 29.8377 7.71999 30.0705 7.42902 30.0705Z" fill="white"/>
<path d="M7.42906 30.388C6.96351 30.388 6.58789 30.0124 6.58789 29.5468V29.0707C6.58789 28.6051 6.9688 28.2295 7.42906 28.2295C7.88933 28.2295 8.27024 28.6051 8.27024 29.0707V29.5468C8.27024 30.0124 7.88933 30.388 7.42906 30.388ZM7.42906 28.8643C7.31796 28.8643 7.22803 28.9543 7.22803 29.0654V29.5415C7.22803 29.6526 7.31796 29.7425 7.42906 29.7425C7.54016 29.7425 7.6301 29.6526 7.6301 29.5415V29.0654C7.6301 28.9543 7.54016 28.8643 7.42906 28.8643Z" fill="#434343"/>
</svg>
