<svg width="34" height="36" viewBox="0 0 34 36" fill="none" xmlns="http://www.w3.org/2000/svg">
<g clip-path="url(#clip0_537_4020)">
<path d="M2.63384 18.4897H1.22168V35.5113H2.63384V18.4897Z" fill="white"/>
<path d="M2.92212 35.7996H0.938477V18.2065H2.92212V35.7996ZM1.50995 35.2281H2.35064V18.778H1.50995V35.2281Z" fill="#414042"/>
<path d="M33.9199 18H17.9199V27H33.9199V18Z" fill="#434343"/>
<path d="M33.8917 35.7996H17.5078V18.2065H33.8965V35.7996H33.8917ZM18.0746 35.2281H33.3203V18.778H18.0793V35.2281H18.0746Z" fill="#414042"/>
<path d="M33.607 15.2319H1.22168V18.6466H33.607V15.2319Z" fill="white"/>
<path d="M33.8905 18.93H0.938477V14.9438H33.8905V18.93ZM1.50995 18.3585H33.3238V15.5153H1.50995V18.3585Z" fill="#414042"/>
<path d="M33.6924 27.2894H17.7902C17.6344 27.2894 17.5068 27.1619 17.5068 27.006C17.5068 26.8502 17.6344 26.7227 17.7902 26.7227H33.6924C33.8483 26.7227 33.9758 26.8502 33.9758 27.006C33.9758 27.1619 33.8483 27.2894 33.6924 27.2894Z" fill="#414042"/>
<path d="M27.3779 23.6102H24.0246C23.8687 23.6102 23.7412 23.4827 23.7412 23.3268C23.7412 23.171 23.8687 23.0435 24.0246 23.0435H27.3779C27.5337 23.0435 27.6613 23.171 27.6613 23.3268C27.6613 23.4827 27.5337 23.6102 27.3779 23.6102Z" fill="white"/>
<path d="M27.3779 30.9256H24.0246C23.8687 30.9256 23.7412 30.7981 23.7412 30.6423C23.7412 30.4864 23.8687 30.3589 24.0246 30.3589H27.3779C27.5337 30.3589 27.6613 30.4864 27.6613 30.6423C27.6613 30.7981 27.5337 30.9256 27.3779 30.9256Z" fill="#434343"/>
<path d="M30.8109 6.5127H18.9043V13.8852H30.8109V6.5127Z" fill="white"/>
<path d="M31.0943 14.1688H18.6162V6.22949H31.0943V14.1688ZM19.1877 13.5973H30.5228V6.80097H19.1877V13.602V13.5973Z" fill="#414042"/>
<path d="M32.0629 13.8857H17.417V15.1468H32.0629V13.8857Z" fill="white"/>
<path d="M32.3463 15.4302H17.1289V13.5977H32.3463V15.4302ZM17.7004 14.8587H31.7748V14.1691H17.7004V14.8587Z" fill="#414042"/>
<path d="M29.8486 7.41064H19.7793V13.0593H29.8486V7.41064Z" fill="white"/>
<path d="M30.1369 13.3427H19.4961V7.12256H30.1369V13.3427ZM20.0676 12.7712H29.5654V7.69404H20.0676V12.7712Z" fill="#414042"/>
<path d="M2.63435 15.4299C2.49267 15.4299 2.36987 15.326 2.35098 15.1796L0.919922 4.16092L5.68538 0H14.0734C14.2292 0 14.3567 0.12752 14.3567 0.283377C14.3567 0.439235 14.2292 0.566755 14.0734 0.566755H5.89792L1.52446 4.38763L2.91773 15.104C2.93662 15.2599 2.828 15.4016 2.67214 15.4252C2.65797 15.4252 2.64852 15.4252 2.63435 15.4252V15.4299Z" fill="#414042"/>
<path d="M14.0783 0.283203H7.65039V1.94568H14.0783V0.283203Z" fill="white"/>
<path d="M14.3617 2.23396H7.3623V0H14.3617V2.23396ZM7.93378 1.66248H13.7902V0.571478H7.93378V1.66248Z" fill="#414042"/>
</g>
<defs>
<clipPath id="clip0_537_4020">
<rect width="33.056" height="35.8" fill="white" transform="translate(0.919922)"/>
</clipPath>
</defs>
</svg>
